<svg id="my-svg" width="100%" xmlns="http://www.w3.org/2000/svg" xmlns:xlink="http://www.w3.org/1999/xlink" class="statediagram" style="max-width: 917.301px; background-color: white;" viewBox="0 0 917.30078125 924.5" role="graphics-document document" aria-roledescription="stateDiagram"><style>#my-svg{font-family:Inter,Segoe UI,Arial,sans-serif;font-size:15px;fill:#0B0F14;}@keyframes edge-animation-frame{from{stroke-dashoffset:0;}}@keyframes dash{to{stroke-dashoffset:0;}}#my-svg .edge-animation-slow{stroke-dasharray:9,5!important;stroke-dashoffset:900;animation:dash 50s linear infinite;stroke-linecap:round;}#my-svg .edge-animation-fast{stroke-dasharray:9,5!important;stroke-dashoffset:900;animation:dash 20s linear infinite;stroke-linecap:round;}#my-svg .error-icon{fill:#FBF9F5;}#my-svg .error-text{fill:#04060a;stroke:#04060a;}#my-svg .edge-thickness-normal{stroke-width:1px;}#my-svg .edge-thickness-thick{stroke-width:3.5px;}#my-svg .edge-pattern-solid{stroke-dasharray:0;}#my-svg .edge-thickness-invisible{stroke-width:0;fill:none;}#my-svg .edge-pattern-dashed{stroke-dasharray:3;}#my-svg .edge-pattern-dotted{stroke-dasharray:2;}#my-svg .marker{fill:#2A3542;stroke:#2A3542;}#my-svg .marker.cross{stroke:#2A3542;}#my-svg svg{font-family:Inter,Segoe UI,Arial,sans-serif;font-size:15px;}#my-svg p{margin:0;}#my-svg defs [id$="-barbEnd"]{fill:#2A3542;stroke:#2A3542;}#my-svg g.stateGroup text{fill:#C46A3A;stroke:none;font-size:10px;}#my-svg g.stateGroup text{fill:#0B0F14;stroke:none;font-size:10px;}#my-svg g.stateGroup .state-title{font-weight:bolder;fill:#0B0F14;}#my-svg g.stateGroup rect{fill:#F5F2EC;stroke:#C46A3A;}#my-svg g.stateGroup line{stroke:#2A3542;stroke-width:1;}#my-svg .transition{stroke:#2A3542;stroke-width:1;fill:none;}#my-svg .stateGroup .composit{fill:#f4f4f4;border-bottom:1px;}#my-svg .stateGroup .alt-composit{fill:#e0e0e0;border-bottom:1px;}#my-svg .state-note{stroke:hsl(40, 0%, 84.3137254902%);fill:#F5F2EC;}#my-svg .state-note text{fill:#333;stroke:none;font-size:10px;}#my-svg .stateLabel .box{stroke:none;stroke-width:0;fill:#F5F2EC;opacity:0.5;}#my-svg .edgeLabel .label rect{fill:#F5F2EC;opacity:0.5;}#my-svg .edgeLabel{background-color:#FFFFFF;text-align:center;}#my-svg .edgeLabel p{background-color:#FFFFFF;}#my-svg .edgeLabel rect{opacity:0.5;background-color:#FFFFFF;fill:#FFFFFF;}#my-svg .edgeLabel .label text{fill:#0B0F14;}#my-svg .label div .edgeLabel{color:#0B0F14;}#my-svg .stateLabel text{fill:#0B0F14;font-size:10px;font-weight:bold;}#my-svg .node circle.state-start{fill:#2A3542;stroke:#2A3542;}#my-svg .node .fork-join{fill:#2A3542;stroke:#2A3542;}#my-svg .node circle.state-end{fill:#C46A3A;stroke:#f4f4f4;stroke-width:1.5;}#my-svg .end-state-inner{fill:#f4f4f4;stroke-width:1.5;}#my-svg .node rect{fill:#F5F2EC;stroke:#C46A3A;stroke-width:1px;}#my-svg .node polygon{fill:#F5F2EC;stroke:#C46A3A;stroke-width:1px;}#my-svg [id$="-barbEnd"]{fill:#2A3542;}#my-svg .statediagram-cluster rect{fill:#F5F2EC;stroke:#C46A3A;stroke-width:1px;}#my-svg .cluster-label,#my-svg .nodeLabel{color:#0B0F14;}#my-svg .statediagram-cluster rect.outer{rx:5px;ry:5px;}#my-svg .statediagram-state .divider{stroke:#C46A3A;}#my-svg .statediagram-state .title-state{rx:5px;ry:5px;}#my-svg .statediagram-cluster.statediagram-cluster .inner{fill:#f4f4f4;}#my-svg .statediagram-cluster.statediagram-cluster-alt .inner{fill:#FBF9F5;}#my-svg .statediagram-cluster .inner{rx:0;ry:0;}#my-svg .statediagram-state rect.basic{rx:5px;ry:5px;}#my-svg .statediagram-state rect.divider{stroke-dasharray:10,10;fill:#FBF9F5;}#my-svg .note-edge{stroke-dasharray:5;}#my-svg .statediagram-note rect{fill:#F5F2EC;stroke:hsl(40, 0%, 84.3137254902%);stroke-width:1px;rx:0;ry:0;}#my-svg .statediagram-note rect{fill:#F5F2EC;stroke:hsl(40, 0%, 84.3137254902%);stroke-width:1px;rx:0;ry:0;}#my-svg .statediagram-note text{fill:#333;}#my-svg .statediagram-note .nodeLabel{color:#333;}#my-svg .statediagram .edgeLabel{color:red;}#my-svg [id$="-dependencyStart"],#my-svg [id$="-dependencyEnd"]{fill:#2A3542;stroke:#2A3542;stroke-width:1;}#my-svg .statediagramTitleText{text-anchor:middle;font-size:18px;fill:#0B0F14;}#my-svg [data-look="neo"].statediagram-cluster rect{fill:#F5F2EC;stroke:url(#my-svg-gradient);stroke-width:1;}#my-svg [data-look="neo"].statediagram-cluster rect.outer{rx:5px;ry:5px;filter:drop-shadow( 1px 2px 2px rgba(185,185,185,1));}#my-svg .node .neo-node{stroke:#C46A3A;}#my-svg [data-look="neo"].node rect,#my-svg [data-look="neo"].cluster rect,#my-svg [data-look="neo"].node polygon{stroke:url(#my-svg-gradient);filter:drop-shadow( 1px 2px 2px rgba(185,185,185,1));}#my-svg [data-look="neo"].swimlane.cluster rect{filter:none;}#my-svg [data-look="neo"].node path{stroke:url(#my-svg-gradient);stroke-width:1px;}#my-svg [data-look="neo"].node .outer-path{filter:drop-shadow( 1px 2px 2px rgba(185,185,185,1));}#my-svg [data-look="neo"].node .neo-line path{stroke:#C46A3A;filter:none;}#my-svg [data-look="neo"].node circle{stroke:url(#my-svg-gradient);filter:drop-shadow( 1px 2px 2px rgba(185,185,185,1));}#my-svg [data-look="neo"].node circle .state-start{fill:#000000;}#my-svg [data-look="neo"].icon-shape .icon{fill:url(#my-svg-gradient);filter:drop-shadow( 1px 2px 2px rgba(185,185,185,1));}#my-svg [data-look="neo"].icon-shape .icon-neo path{stroke:url(#my-svg-gradient);filter:drop-shadow( 1px 2px 2px rgba(185,185,185,1));}#my-svg :root{--mermaid-font-family:"trebuchet ms",verdana,arial,sans-serif;}</style><g><defs><marker id="my-svg_stateDiagram-barbEnd" refX="19" refY="7" markerWidth="20" markerHeight="14" markerUnits="userSpaceOnUse" orient="auto"><path d="M 19,7 L9,13 L14,7 L9,1 Z"/></marker></defs><g class="root"><g class="clusters"/><g class="edgePaths"><path d="M175.387,22L175.387,26.167C175.387,30.333,175.387,38.667,175.387,47C175.387,55.333,175.387,63.667,175.387,67.833L175.387,72" id="my-svg-edge0" class="edge-thickness-normal edge-pattern-solid transition" style="fill:none;;;fill:none" data-edge="true" data-et="edge" data-id="edge0" data-points="W3sieCI6MTc1LjM4NjcxODc1LCJ5IjoyMn0seyJ4IjoxNzUuMzg2NzE4NzUsInkiOjQ3fSx7IngiOjE3NS4zODY3MTg3NSwieSI6NzJ9XQ==" data-look="classic" marker-end="url(#my-svg_stateDiagram-barbEnd)"/><path d="M216.566,107.992L232.455,114.452C248.344,120.911,280.121,133.831,296.01,146.332C311.898,158.833,311.898,170.917,311.898,176.958L311.898,183" id="my-svg-edge1" class="edge-thickness-normal edge-pattern-solid transition" style="fill:none;;;fill:none" data-edge="true" data-et="edge" data-id="edge1" data-points="W3sieCI6MjE2LjU2NjQwNjI1LCJ5IjoxMDcuOTkxOTUyMDk4ODkyNjF9LHsieCI6MzExLjg5ODQzNzUsInkiOjE0Ni43NX0seyJ4IjozMTEuODk4NDM3NSwieSI6MTgzfV0=" data-look="classic" marker-end="url(#my-svg_stateDiagram-barbEnd)"/><path d="M382.102,214.829L432.491,223.857C482.88,232.886,583.659,250.943,634.048,267.888C684.438,284.833,684.438,300.667,684.438,308.583L684.438,316.5" id="my-svg-edge2" class="edge-thickness-normal edge-pattern-solid transition" style="fill:none;;;fill:none" data-edge="true" data-et="edge" data-id="edge2" data-points="W3sieCI6MzgyLjEwMTU2MjUsInkiOjIxNC44Mjg3MDM5OTQ5NjY5Nn0seyJ4Ijo2ODQuNDM3NSwieSI6MjY5fSx7IngiOjY4NC40Mzc1LCJ5IjozMTYuNX1d" data-look="classic" marker-end="url(#my-svg_stateDiagram-barbEnd)"/><path d="M697.7,355L703.154,362.917C708.609,370.833,719.517,386.667,724.971,403.042C730.426,419.417,730.426,436.333,730.426,444.792L730.426,453.25" id="my-svg-edge3" class="edge-thickness-normal edge-pattern-solid transition" style="fill:none;;;fill:none" data-edge="true" data-et="edge" data-id="edge3" data-points="W3sieCI6Njk3LjcwMDAzODAzODM4OTUsInkiOjM1NX0seyJ4Ijo3MzAuNDI1NzgxMjUsInkiOjQwMi41fSx7IngiOjczMC40MjU3ODEyNSwieSI6NDUzLjI1fV0=" data-look="classic" marker-end="url(#my-svg_stateDiagram-barbEnd)"/><path d="M746.742,491.75L752.322,498.333C757.902,504.917,769.063,518.083,774.643,530.708C780.223,543.333,780.223,555.417,780.223,561.458L780.223,567.5" id="my-svg-edge4" class="edge-thickness-normal edge-pattern-solid transition" style="fill:none;;;fill:none" data-edge="true" data-et="edge" data-id="edge4" data-points="W3sieCI6NzQ2Ljc0MjIwNDEyMjM0MDUsInkiOjQ5MS43NX0seyJ4Ijo3ODAuMjIyNjU2MjUsInkiOjUzMS4yNX0seyJ4Ijo3ODAuMjIyNjU2MjUsInkiOjU2Ny41fV0=" data-look="classic" marker-end="url(#my-svg_stateDiagram-barbEnd)"/><path d="M793.889,606L798.179,612.042C802.468,618.083,811.046,630.167,815.336,642.25C819.625,654.333,819.625,666.417,819.625,672.458L819.625,678.5" id="my-svg-edge5" class="edge-thickness-normal edge-pattern-solid transition" style="fill:none;;;fill:none" data-edge="true" data-et="edge" data-id="edge5" data-points="W3sieCI6NzkzLjg4OTIzNDkzODA2MywieSI6NjA2fSx7IngiOjgxOS42MjUsInkiOjY0Mi4yNX0seyJ4Ijo4MTkuNjI1LCJ5Ijo2NzguNX1d" data-look="classic" marker-end="url(#my-svg_stateDiagram-barbEnd)"/><path d="M832.305,717L836.285,723.042C840.265,729.083,848.224,741.167,852.204,753.25C856.184,765.333,856.184,777.417,856.184,783.458L856.184,789.5" id="my-svg-edge6" class="edge-thickness-normal edge-pattern-solid transition" style="fill:none;;;fill:none" data-edge="true" data-et="edge" data-id="edge6" data-points="W3sieCI6ODMyLjMwNTIzMjk2NzM0MjQsInkiOjcxN30seyJ4Ijo4NTYuMTgzNTkzNzUsInkiOjc1My4yNX0seyJ4Ijo4NTYuMTgzNTkzNzUsInkiOjc4OS41fV0=" data-look="classic" marker-end="url(#my-svg_stateDiagram-barbEnd)"/><path d="M856.184,828L856.184,832.167C856.184,836.333,856.184,844.667,856.184,855.041C856.184,865.414,856.184,877.829,856.184,884.036L856.184,890.243" id="my-svg-edge7" class="edge-thickness-normal edge-pattern-solid transition" style="fill:none;;;fill:none" data-edge="true" data-et="edge" data-id="edge7" data-points="W3sieCI6ODU2LjE4MzU5Mzc1LCJ5Ijo4Mjh9LHsieCI6ODU2LjE4MzU5Mzc1LCJ5Ijo4NTN9LHsieCI6ODU2LjE4MzU5Mzc1LCJ5Ijo4OTAuMjQzMzUzMzY2ODUxOH1d" data-look="classic" marker-end="url(#my-svg_stateDiagram-barbEnd)"/><path d="M166.359,110.5L163.526,116.542C160.693,122.583,155.026,134.667,152.193,149.958C149.359,165.25,149.359,183.75,149.359,204.125C149.359,224.5,149.359,246.75,149.359,265.792C149.359,284.833,149.359,300.667,149.359,308.583L149.359,316.5" id="my-svg-edge8" class="edge-thickness-normal edge-pattern-solid transition" style="fill:none;;;fill:none" data-edge="true" data-et="edge" data-id="edge8" data-points="W3sieCI6MTY2LjM1OTIxNjYzODUxMzUyLCJ5IjoxMTAuNX0seyJ4IjoxNDkuMzU5Mzc1LCJ5IjoxNDYuNzV9LHsieCI6MTQ5LjM1OTM3NSwieSI6MjAyLjI1fSx7IngiOjE0OS4zNTkzNzUsInkiOjI2OX0seyJ4IjoxNDkuMzU5Mzc1LCJ5IjozMTYuNX1d" data-look="classic" marker-end="url(#my-svg_stateDiagram-barbEnd)"/><path d="M288.461,221.5L278.822,229.417C269.184,237.333,249.906,253.167,230.629,269C211.351,284.833,192.074,300.667,182.435,308.583L172.797,316.5" id="my-svg-edge9" class="edge-thickness-normal edge-pattern-solid transition" style="fill:none;;;fill:none" data-edge="true" data-et="edge" data-id="edge9" data-points="W3sieCI6Mjg4LjQ2MTE1Njk1MjI0NzE3LCJ5IjoyMjEuNX0seyJ4IjoyMzAuNjI4OTA2MjUsInkiOjI2OX0seyJ4IjoxNzIuNzk2NjU1NTQ3NzUyOCwieSI6MzE2LjV9XQ==" data-look="classic" marker-end="url(#my-svg_stateDiagram-barbEnd)"/><path d="M139.535,110.5L128.283,116.542C117.031,122.583,94.527,134.667,83.275,149.958C72.023,165.25,72.023,183.75,72.023,204.125C72.023,224.5,72.023,246.75,72.023,269C72.023,291.25,72.023,313.5,72.023,335.75C72.023,358,72.023,380.25,72.023,403.042C72.023,425.833,72.023,449.167,72.023,470.625C72.023,492.083,72.023,511.667,72.023,530.708C72.023,549.75,72.023,568.25,72.023,586.75C72.023,605.25,72.023,623.75,72.023,642.25C72.023,660.75,72.023,679.25,72.023,697.75C72.023,716.25,72.023,734.75,72.023,753.25C72.023,771.75,72.023,790.25,72.023,806.875C72.023,823.5,72.023,838.25,114.344,852.115C156.665,865.98,241.307,878.961,283.628,885.451L325.949,891.941" id="my-svg-edge10" class="edge-thickness-normal edge-pattern-solid transition" style="fill:none;;;fill:none" data-edge="true" data-et="edge" data-id="edge10" data-points="W3sieCI6MTM5LjUzNTQ5MDU2ODY5MzcsInkiOjExMC41fSx7IngiOjcyLjAyMzQzNzUsInkiOjE0Ni43NX0seyJ4Ijo3Mi4wMjM0Mzc1LCJ5IjoyMDIuMjV9LHsieCI6NzIuMDIzNDM3NSwieSI6MjY5fSx7IngiOjcyLjAyMzQzNzUsInkiOjMzNS43NX0seyJ4Ijo3Mi4wMjM0Mzc1LCJ5Ijo0MDIuNX0seyJ4Ijo3Mi4wMjM0Mzc1LCJ5Ijo0NzIuNX0seyJ4Ijo3Mi4wMjM0Mzc1LCJ5Ijo1MzEuMjV9LHsieCI6NzIuMDIzNDM3NSwieSI6NTg2Ljc1fSx7IngiOjcyLjAyMzQzNzUsInkiOjY0Mi4yNX0seyJ4Ijo3Mi4wMjM0Mzc1LCJ5Ijo2OTcuNzV9LHsieCI6NzIuMDIzNDM3NSwieSI6NzUzLjI1fSx7IngiOjcyLjAyMzQzNzUsInkiOjgwOC43NX0seyJ4Ijo3Mi4wMjM0Mzc1LCJ5Ijo4NTN9LHsieCI6MzI1Ljk0OTIxODc1LCJ5Ijo4OTEuOTQxMjIyMDYxMjcyMn1d" data-look="classic" marker-end="url(#my-svg_stateDiagram-barbEnd)"/><path d="M311.898,221.5L311.898,229.417C311.898,237.333,311.898,253.167,311.898,272.208C311.898,291.25,311.898,313.5,311.898,335.75C311.898,358,311.898,380.25,311.898,403.042C311.898,425.833,311.898,449.167,311.898,470.625C311.898,492.083,311.898,511.667,311.898,530.708C311.898,549.75,311.898,568.25,311.898,586.75C311.898,605.25,311.898,623.75,311.898,642.25C311.898,660.75,311.898,679.25,311.898,697.75C311.898,716.25,311.898,734.75,311.898,753.25C311.898,771.75,311.898,790.25,311.898,806.875C311.898,823.5,311.898,838.25,316.481,849.792C321.064,861.333,330.229,869.667,334.812,873.833L339.394,878" id="my-svg-edge11" class="edge-thickness-normal edge-pattern-solid transition" style="fill:none;;;fill:none" data-edge="true" data-et="edge" data-id="edge11" data-points="W3sieCI6MzExLjg5ODQzNzUsInkiOjIyMS41fSx7IngiOjMxMS44OTg0Mzc1LCJ5IjoyNjl9LHsieCI6MzExLjg5ODQzNzUsInkiOjMzNS43NX0seyJ4IjozMTEuODk4NDM3NSwieSI6NDAyLjV9LHsieCI6MzExLjg5ODQzNzUsInkiOjQ3Mi41fSx7IngiOjMxMS44OTg0Mzc1LCJ5Ijo1MzEuMjV9LHsieCI6MzExLjg5ODQzNzUsInkiOjU4Ni43NX0seyJ4IjozMTEuODk4NDM3NSwieSI6NjQyLjI1fSx7IngiOjMxMS44OTg0Mzc1LCJ5Ijo2OTcuNzV9LHsieCI6MzExLjg5ODQzNzUsInkiOjc1My4yNX0seyJ4IjozMTEuODk4NDM3NSwieSI6ODA4Ljc1fSx7IngiOjMxMS44OTg0Mzc1LCJ5Ijo4NTN9LHsieCI6MzM5LjM5NDQ2NTA0MjM3MjksInkiOjg3OH1d" data-look="classic" marker-end="url(#my-svg_stateDiagram-barbEnd)"/><path d="M644.867,343.242L592.706,353.119C540.544,362.995,436.221,382.747,384.06,404.29C331.898,425.833,331.898,449.167,331.898,470.625C331.898,492.083,331.898,511.667,331.898,530.708C331.898,549.75,331.898,568.25,331.898,586.75C331.898,605.25,331.898,623.75,331.898,642.25C331.898,660.75,331.898,679.25,331.898,697.75C331.898,716.25,331.898,734.75,331.898,753.25C331.898,771.75,331.898,790.25,331.898,806.875C331.898,823.5,331.898,838.25,334.598,849.792C337.297,861.333,342.696,869.667,345.396,873.833L348.095,878" id="my-svg-edge12" class="edge-thickness-normal edge-pattern-solid transition" style="fill:none;;;fill:none" data-edge="true" data-et="edge" data-id="edge12" data-points="W3sieCI6NjQ0Ljg2NzE4NzUsInkiOjM0My4yNDIyNzE0NjgxNDQwNX0seyJ4IjozMzEuODk4NDM3NSwieSI6NDAyLjV9LHsieCI6MzMxLjg5ODQzNzUsInkiOjQ3Mi41fSx7IngiOjMzMS44OTg0Mzc1LCJ5Ijo1MzEuMjV9LHsieCI6MzMxLjg5ODQzNzUsInkiOjU4Ni43NX0seyJ4IjozMzEuODk4NDM3NSwieSI6NjQyLjI1fSx7IngiOjMzMS44OTg0Mzc1LCJ5Ijo2OTcuNzV9LHsieCI6MzMxLjg5ODQzNzUsInkiOjc1My4yNX0seyJ4IjozMzEuODk4NDM3NSwieSI6ODA4Ljc1fSx7IngiOjMzMS44OTg0Mzc1LCJ5Ijo4NTN9LHsieCI6MzQ4LjA5NTAzMDAxNDEyNDMsInkiOjg3OH1d" data-look="classic" marker-end="url(#my-svg_stateDiagram-barbEnd)"/><path d="M216.566,99.734L254.602,107.57C292.638,115.406,368.71,131.078,406.745,148.164C444.781,165.25,444.781,183.75,444.781,204.125C444.781,224.5,444.781,246.75,444.781,269C444.781,291.25,444.781,313.5,444.781,335.75C444.781,358,444.781,380.25,444.781,403.042C444.781,425.833,444.781,449.167,444.781,470.625C444.781,492.083,444.781,511.667,444.781,530.708C444.781,549.75,444.781,568.25,444.781,586.75C444.781,605.25,444.781,623.75,444.781,642.25C444.781,660.75,444.781,679.25,444.781,697.75C444.781,716.25,444.781,734.75,464.491,751.155C484.201,767.56,523.62,781.87,543.329,789.025L563.039,796.18" id="my-svg-edge13" class="edge-thickness-normal edge-pattern-solid transition" style="fill:none;;;fill:none" data-edge="true" data-et="edge" data-id="edge13" data-points="W3sieCI6MjE2LjU2NjQwNjI1LCJ5Ijo5OS43MzM3MzgxMjgwMzU5NX0seyJ4Ijo0NDQuNzgxMjUsInkiOjE0Ni43NX0seyJ4Ijo0NDQuNzgxMjUsInkiOjIwMi4yNX0seyJ4Ijo0NDQuNzgxMjUsInkiOjI2OX0seyJ4Ijo0NDQuNzgxMjUsInkiOjMzNS43NX0seyJ4Ijo0NDQuNzgxMjUsInkiOjQwMi41fSx7IngiOjQ0NC43ODEyNSwieSI6NDcyLjV9LHsieCI6NDQ0Ljc4MTI1LCJ5Ijo1MzEuMjV9LHsieCI6NDQ0Ljc4MTI1LCJ5Ijo1ODYuNzV9LHsieCI6NDQ0Ljc4MTI1LCJ5Ijo2NDIuMjV9LHsieCI6NDQ0Ljc4MTI1LCJ5Ijo2OTcuNzV9LHsieCI6NDQ0Ljc4MTI1LCJ5Ijo3NTMuMjV9LHsieCI6NTYzLjAzOTA2MjUsInkiOjc5Ni4xODAzMjM0NzA3OTU3fV0=" data-look="classic" marker-end="url(#my-svg_stateDiagram-barbEnd)"/><path d="M382.102,221.317L411.362,229.264C440.622,237.211,499.143,253.106,528.404,272.178C557.664,291.25,557.664,313.5,557.664,335.75C557.664,358,557.664,380.25,557.664,403.042C557.664,425.833,557.664,449.167,557.664,470.625C557.664,492.083,557.664,511.667,557.664,530.708C557.664,549.75,557.664,568.25,557.664,586.75C557.664,605.25,557.664,623.75,557.664,642.25C557.664,660.75,557.664,679.25,557.664,697.75C557.664,716.25,557.664,734.75,562.018,750.042C566.373,765.333,575.081,777.417,579.436,783.458L583.79,789.5" id="my-svg-edge14" class="edge-thickness-normal edge-pattern-solid transition" style="fill:none;;;fill:none" data-edge="true" data-et="edge" data-id="edge14" data-points="W3sieCI6MzgyLjEwMTU2MjUsInkiOjIyMS4zMTcxODQ4MTc4NTIzNn0seyJ4Ijo1NTcuNjY0MDYyNSwieSI6MjY5fSx7IngiOjU1Ny42NjQwNjI1LCJ5IjozMzUuNzV9LHsieCI6NTU3LjY2NDA2MjUsInkiOjQwMi41fSx7IngiOjU1Ny42NjQwNjI1LCJ5Ijo0NzIuNX0seyJ4Ijo1NTcuNjY0MDYyNSwieSI6NTMxLjI1fSx7IngiOjU1Ny42NjQwNjI1LCJ5Ijo1ODYuNzV9LHsieCI6NTU3LjY2NDA2MjUsInkiOjY0Mi4yNX0seyJ4Ijo1NTcuNjY0MDYyNSwieSI6Njk3Ljc1fSx7IngiOjU1Ny42NjQwNjI1LCJ5Ijo3NTMuMjV9LHsieCI6NTgzLjc5MDE4ODYyNjEyNjEsInkiOjc4OS41fV0=" data-look="classic" marker-end="url(#my-svg_stateDiagram-barbEnd)"/><path d="M663.809,355L655.325,362.917C646.841,370.833,629.874,386.667,621.39,406.25C612.906,425.833,612.906,449.167,612.906,470.625C612.906,492.083,612.906,511.667,612.906,530.708C612.906,549.75,612.906,568.25,612.906,586.75C612.906,605.25,612.906,623.75,612.906,642.25C612.906,660.75,612.906,679.25,612.906,697.75C612.906,716.25,612.906,734.75,611.247,750.042C609.588,765.333,606.269,777.417,604.61,783.458L602.951,789.5" id="my-svg-edge15" class="edge-thickness-normal edge-pattern-solid transition" style="fill:none;;;fill:none" data-edge="true" data-et="edge" data-id="edge15" data-points="W3sieCI6NjYzLjgwODYzNzY0MDQ0OTQsInkiOjM1NX0seyJ4Ijo2MTIuOTA2MjUsInkiOjQwMi41fSx7IngiOjYxMi45MDYyNSwieSI6NDcyLjV9LHsieCI6NjEyLjkwNjI1LCJ5Ijo1MzEuMjV9LHsieCI6NjEyLjkwNjI1LCJ5Ijo1ODYuNzV9LHsieCI6NjEyLjkwNjI1LCJ5Ijo2NDIuMjV9LHsieCI6NjEyLjkwNjI1LCJ5Ijo2OTcuNzV9LHsieCI6NjEyLjkwNjI1LCJ5Ijo3NTMuMjV9LHsieCI6NjAyLjk1MDc2NzE3MzQyMzQsInkiOjc4OS41fV0=" data-look="classic" marker-end="url(#my-svg_stateDiagram-barbEnd)"/><path d="M710.264,491.75L703.369,498.333C696.474,504.917,682.685,518.083,675.79,533.917C668.895,549.75,668.895,568.25,668.895,586.75C668.895,605.25,668.895,623.75,668.895,642.25C668.895,660.75,668.895,679.25,668.895,697.75C668.895,716.25,668.895,734.75,661.14,750.042C653.386,765.333,637.878,777.417,630.124,783.458L622.37,789.5" id="my-svg-edge16" class="edge-thickness-normal edge-pattern-solid transition" style="fill:none;;;fill:none" data-edge="true" data-et="edge" data-id="edge16" data-points="W3sieCI6NzEwLjI2NDQ3ODA1ODUxMDcsInkiOjQ5MS43NX0seyJ4Ijo2NjguODk0NTMxMjUsInkiOjUzMS4yNX0seyJ4Ijo2NjguODk0NTMxMjUsInkiOjU4Ni43NX0seyJ4Ijo2NjguODk0NTMxMjUsInkiOjY0Mi4yNX0seyJ4Ijo2NjguODk0NTMxMjUsInkiOjY5Ny43NX0seyJ4Ijo2NjguODk0NTMxMjUsInkiOjc1My4yNX0seyJ4Ijo2MjIuMzcwMTI1OTg1MzYwMywieSI6Nzg5LjV9XQ==" data-look="classic" marker-end="url(#my-svg_stateDiagram-barbEnd)"/><path d="M762.349,606L756.74,612.042C751.13,618.083,739.911,630.167,734.301,645.458C728.691,660.75,728.691,679.25,728.691,697.75C728.691,716.25,728.691,734.75,712.624,750.806C696.557,766.861,664.423,780.472,648.356,787.278L632.289,794.084" id="my-svg-edge17" class="edge-thickness-normal edge-pattern-solid transition" style="fill:none;;;fill:none" data-edge="true" data-et="edge" data-id="edge17" data-points="W3sieCI6NzYyLjM0OTIwNDY3MzQyMzQsInkiOjYwNn0seyJ4Ijo3MjguNjkxNDA2MjUsInkiOjY0Mi4yNX0seyJ4Ijo3MjguNjkxNDA2MjUsInkiOjY5Ny43NX0seyJ4Ijo3MjguNjkxNDA2MjUsInkiOjc1My4yNX0seyJ4Ijo2MzIuMjg5MDYyNSwieSI6Nzk0LjA4MzY5MTA4MzA4NzR9XQ==" data-look="classic" marker-end="url(#my-svg_stateDiagram-barbEnd)"/><path d="M805.22,717L800.699,723.042C796.178,729.083,787.136,741.167,758.314,754.683C729.492,768.2,680.891,783.15,656.59,790.624L632.289,798.099" id="my-svg-edge18" class="edge-thickness-normal edge-pattern-solid transition" style="fill:none;;;fill:none" data-edge="true" data-et="edge" data-id="edge18" data-points="W3sieCI6ODA1LjIyMDAxNjg5MTg5MTksInkiOjcxN30seyJ4Ijo3NzguMDkzNzUsInkiOjc1My4yNX0seyJ4Ijo2MzIuMjg5MDYyNSwieSI6Nzk4LjA5OTM4Mjk4MzMyOTd9XQ==" data-look="classic" marker-end="url(#my-svg_stateDiagram-barbEnd)"/><path d="M597.664,828L597.664,832.167C597.664,836.333,597.664,844.667,563.917,855.132C530.171,865.596,462.677,878.193,428.93,884.491L395.184,890.789" id="my-svg-edge19" class="edge-thickness-normal edge-pattern-solid transition" style="fill:none;;;fill:none" data-edge="true" data-et="edge" data-id="edge19" data-points="W3sieCI6NTk3LjY2NDA2MjUsInkiOjgyOH0seyJ4Ijo1OTcuNjY0MDYyNSwieSI6ODUzfSx7IngiOjM5NS4xODM1OTM3NSwieSI6ODkwLjc4OTMyNjQ5MDYwMDh9XQ==" data-look="classic" marker-end="url(#my-svg_stateDiagram-barbEnd)"/></g><g class="edgeLabels"><g class="edgeLabel"><g class="label" data-id="edge0" transform="translate(0, 0)"><foreignObject width="0" height="0"><div xmlns="http://www.w3.org/1999/xhtml" class="labelBkg" style="display: table-cell; white-space: nowrap; line-height: 1.5; max-width: 200px; text-align: center;"><span class="edgeLabel"></span></div></foreignObject></g></g><g class="edgeLabel" transform="translate(311.8984375, 146.75)"><g class="label" data-id="edge1" transform="translate(-38.03125, -11.25)"><foreignObject width="76.0625" height="22.5"><div xmlns="http://www.w3.org/1999/xhtml" class="labelBkg" style="display: table-cell; white-space: nowrap; line-height: 1.5; max-width: 200px; text-align: center;"><span class="edgeLabel"><p>start review</p></span></div></foreignObject></g></g><g class="edgeLabel" transform="translate(684.4375, 269)"><g class="label" data-id="edge2" transform="translate(-70.484375, -22.5)"><foreignObject width="140.96875" height="45"><div xmlns="http://www.w3.org/1999/xhtml" class="labelBkg" style="display: table-cell; white-space: nowrap; line-height: 1.5; max-width: 200px; text-align: center;"><span class="edgeLabel"><p>approve (four-eyes,<br />compliance re-check)</p></span></div></foreignObject></g></g><g class="edgeLabel" transform="translate(730.42578125, 402.5)"><g class="label" data-id="edge3" transform="translate(-53.0078125, -22.5)"><foreignObject width="106.015625" height="45"><div xmlns="http://www.w3.org/1999/xhtml" class="labelBkg" style="display: table-cell; white-space: nowrap; line-height: 1.5; max-width: 200px; text-align: center;"><span class="edgeLabel"><p>record burn<br />(testnet tx hash)</p></span></div></foreignObject></g></g><g class="edgeLabel" transform="translate(780.22265625, 531.25)"><g class="label" data-id="edge4" transform="translate(-51.1171875, -11.25)"><foreignObject width="102.234375" height="22.5"><div xmlns="http://www.w3.org/1999/xhtml" class="labelBkg" style="display: table-cell; white-space: nowrap; line-height: 1.5; max-width: 200px; text-align: center;"><span class="edgeLabel"><p>release custody</p></span></div></foreignObject></g></g><g class="edgeLabel" transform="translate(819.625, 642.25)"><g class="label" data-id="edge5" transform="translate(-27.890625, -11.25)"><foreignObject width="55.78125" height="22.5"><div xmlns="http://www.w3.org/1999/xhtml" class="labelBkg" style="display: table-cell; white-space: nowrap; line-height: 1.5; max-width: 200px; text-align: center;"><span class="edgeLabel"><p>dispatch</p></span></div></foreignObject></g></g><g class="edgeLabel" transform="translate(856.18359375, 753.25)"><g class="label" data-id="edge6" transform="translate(-53.1171875, -11.25)"><foreignObject width="106.234375" height="22.5"><div xmlns="http://www.w3.org/1999/xhtml" class="labelBkg" style="display: table-cell; white-space: nowrap; line-height: 1.5; max-width: 200px; text-align: center;"><span class="edgeLabel"><p>confirm delivery</p></span></div></foreignObject></g></g><g class="edgeLabel"><g class="label" data-id="edge7" transform="translate(0, 0)"><foreignObject width="0" height="0"><div xmlns="http://www.w3.org/1999/xhtml" class="labelBkg" style="display: table-cell; white-space: nowrap; line-height: 1.5; max-width: 200px; text-align: center;"><span class="edgeLabel"></span></div></foreignObject></g></g><g class="edgeLabel" transform="translate(149.359375, 202.25)"><g class="label" data-id="edge8" transform="translate(-57.3359375, -11.25)"><foreignObject width="114.671875" height="22.5"><div xmlns="http://www.w3.org/1999/xhtml" class="labelBkg" style="display: table-cell; white-space: nowrap; line-height: 1.5; max-width: 200px; text-align: center;"><span class="edgeLabel"><p>requester cancels</p></span></div></foreignObject></g></g><g class="edgeLabel" transform="translate(230.62890625, 269)"><g class="label" data-id="edge9" transform="translate(-57.3359375, -11.25)"><foreignObject width="114.671875" height="22.5"><div xmlns="http://www.w3.org/1999/xhtml" class="labelBkg" style="display: table-cell; white-space: nowrap; line-height: 1.5; max-width: 200px; text-align: center;"><span class="edgeLabel"><p>requester cancels</p></span></div></foreignObject></g></g><g class="edgeLabel" transform="translate(72.0234375, 531.25)"><g class="label" data-id="edge10" transform="translate(-64.0234375, -11.25)"><foreignObject width="128.046875" height="22.5"><div xmlns="http://www.w3.org/1999/xhtml" class="labelBkg" style="display: table-cell; white-space: nowrap; line-height: 1.5; max-width: 200px; text-align: center;"><span class="edgeLabel"><p>reject (before burn)</p></span></div></foreignObject></g></g><g class="edgeLabel"><g class="label" data-id="edge11" transform="translate(0, 0)"><foreignObject width="0" height="0"><div xmlns="http://www.w3.org/1999/xhtml" class="labelBkg" style="display: table-cell; white-space: nowrap; line-height: 1.5; max-width: 200px; text-align: center;"><span class="edgeLabel"></span></div></foreignObject></g></g><g class="edgeLabel"><g class="label" data-id="edge12" transform="translate(0, 0)"><foreignObject width="0" height="0"><div xmlns="http://www.w3.org/1999/xhtml" class="labelBkg" style="display: table-cell; white-space: nowrap; line-height: 1.5; max-width: 200px; text-align: center;"><span class="edgeLabel"></span></div></foreignObject></g></g><g class="edgeLabel" transform="translate(444.78125, 472.5)"><g class="label" data-id="edge13" transform="translate(-92.8828125, -22.5)"><foreignObject width="185.765625" height="45"><div xmlns="http://www.w3.org/1999/xhtml" class="labelBkg" style="display: table-cell; white-space: nowrap; line-height: 1.5; max-width: 200px; text-align: center;"><span class="edgeLabel"><p>hold (resumed to prior state<br />by a different user)</p></span></div></foreignObject></g></g><g class="edgeLabel"><g class="label" data-id="edge14" transform="translate(0, 0)"><foreignObject width="0" height="0"><div xmlns="http://www.w3.org/1999/xhtml" class="labelBkg" style="display: table-cell; white-space: nowrap; line-height: 1.5; max-width: 200px; text-align: center;"><span class="edgeLabel"></span></div></foreignObject></g></g><g class="edgeLabel"><g class="label" data-id="edge15" transform="translate(0, 0)"><foreignObject width="0" height="0"><div xmlns="http://www.w3.org/1999/xhtml" class="labelBkg" style="display: table-cell; white-space: nowrap; line-height: 1.5; max-width: 200px; text-align: center;"><span class="edgeLabel"></span></div></foreignObject></g></g><g class="edgeLabel"><g class="label" data-id="edge16" transform="translate(0, 0)"><foreignObject width="0" height="0"><div xmlns="http://www.w3.org/1999/xhtml" class="labelBkg" style="display: table-cell; white-space: nowrap; line-height: 1.5; max-width: 200px; text-align: center;"><span class="edgeLabel"></span></div></foreignObject></g></g><g class="edgeLabel"><g class="label" data-id="edge17" transform="translate(0, 0)"><foreignObject width="0" height="0"><div xmlns="http://www.w3.org/1999/xhtml" class="labelBkg" style="display: table-cell; white-space: nowrap; line-height: 1.5; max-width: 200px; text-align: center;"><span class="edgeLabel"></span></div></foreignObject></g></g><g class="edgeLabel"><g class="label" data-id="edge18" transform="translate(0, 0)"><foreignObject width="0" height="0"><div xmlns="http://www.w3.org/1999/xhtml" class="labelBkg" style="display: table-cell; white-space: nowrap; line-height: 1.5; max-width: 200px; text-align: center;"><span class="edgeLabel"></span></div></foreignObject></g></g><g class="edgeLabel"><g class="label" data-id="edge19" transform="translate(0, 0)"><foreignObject width="0" height="0"><div xmlns="http://www.w3.org/1999/xhtml" class="labelBkg" style="display: table-cell; white-space: nowrap; line-height: 1.5; max-width: 200px; text-align: center;"><span class="edgeLabel"></span></div></foreignObject></g></g></g><g class="nodes"><g class="node default" id="my-svg-state-root_start-0" data-look="classic" transform="translate(175.38671875, 15)"><circle class="state-start" r="7" width="14" height="14"/></g><g class="node  statediagram-state" id="my-svg-state-requested-13" data-look="classic" transform="translate(175.38671875, 91.25)"><rect class="basic label-container" style="" rx="5" ry="5" x="-41.1796875" y="-19.25" width="82.359375" height="38.5"/><g class="label" style="" transform="translate(-33.1796875, -11.25)"><rect/><foreignObject width="66.359375" height="22.5"><div xmlns="http://www.w3.org/1999/xhtml" style="display: table-cell; white-space: nowrap; line-height: 1.5; max-width: 200px; text-align: center;"><span class="nodeLabel markdown-node-label"><p>requested</p></span></div></foreignObject></g></g><g class="node  statediagram-state" id="my-svg-state-compliance_review-14" data-look="classic" transform="translate(311.8984375, 202.25)"><rect class="basic label-container" style="" rx="5" ry="5" x="-70.203125" y="-19.25" width="140.40625" height="38.5"/><g class="label" style="" transform="translate(-62.203125, -11.25)"><rect/><foreignObject width="124.40625" height="22.5"><div xmlns="http://www.w3.org/1999/xhtml" style="display: table-cell; white-space: nowrap; line-height: 1.5; max-width: 200px; text-align: center;"><span class="nodeLabel markdown-node-label"><p>compliance_review</p></span></div></foreignObject></g></g><g class="node  statediagram-state" id="my-svg-state-approved-15" data-look="classic" transform="translate(684.4375, 335.75)"><rect class="basic label-container" style="" rx="5" ry="5" x="-39.5703125" y="-19.25" width="79.140625" height="38.5"/><g class="label" style="" transform="translate(-31.5703125, -11.25)"><rect/><foreignObject width="63.140625" height="22.5"><div xmlns="http://www.w3.org/1999/xhtml" style="display: table-cell; white-space: nowrap; line-height: 1.5; max-width: 200px; text-align: center;"><span class="nodeLabel markdown-node-label"><p>approved</p></span></div></foreignObject></g></g><g class="node  statediagram-state" id="my-svg-state-tokens_burned-16" data-look="classic" transform="translate(730.42578125, 472.5)"><rect class="basic label-container" style="" rx="5" ry="5" x="-56.9765625" y="-19.25" width="113.953125" height="38.5"/><g class="label" style="" transform="translate(-48.9765625, -11.25)"><rect/><foreignObject width="97.953125" height="22.5"><div xmlns="http://www.w3.org/1999/xhtml" style="display: table-cell; white-space: nowrap; line-height: 1.5; max-width: 200px; text-align: center;"><span class="nodeLabel markdown-node-label"><p>tokens_burned</p></span></div></foreignObject></g></g><g class="node  statediagram-state" id="my-svg-state-custody_released-17" data-look="classic" transform="translate(780.22265625, 586.75)"><rect class="basic label-container" style="" rx="5" ry="5" x="-64.59375" y="-19.25" width="129.1875" height="38.5"/><g class="label" style="" transform="translate(-56.59375, -11.25)"><rect/><foreignObject width="113.1875" height="22.5"><div xmlns="http://www.w3.org/1999/xhtml" style="display: table-cell; white-space: nowrap; line-height: 1.5; max-width: 200px; text-align: center;"><span class="nodeLabel markdown-node-label"><p>custody_released</p></span></div></foreignObject></g></g><g class="node  statediagram-state" id="my-svg-state-in_logistics-18" data-look="classic" transform="translate(819.625, 697.75)"><rect class="basic label-container" style="" rx="5" ry="5" x="-43.8046875" y="-19.25" width="87.609375" height="38.5"/><g class="label" style="" transform="translate(-35.8046875, -11.25)"><rect/><foreignObject width="71.609375" height="22.5"><div xmlns="http://www.w3.org/1999/xhtml" style="display: table-cell; white-space: nowrap; line-height: 1.5; max-width: 200px; text-align: center;"><span class="nodeLabel markdown-node-label"><p>in_logistics</p></span></div></foreignObject></g></g><g class="node  statediagram-state" id="my-svg-state-delivered-7" data-look="classic" transform="translate(856.18359375, 808.75)"><rect class="basic label-container" style="" rx="5" ry="5" x="-38.4375" y="-19.25" width="76.875" height="38.5"/><g class="label" style="" transform="translate(-30.4375, -11.25)"><rect/><foreignObject width="60.875" height="22.5"><div xmlns="http://www.w3.org/1999/xhtml" style="display: table-cell; white-space: nowrap; line-height: 1.5; max-width: 200px; text-align: center;"><span class="nodeLabel markdown-node-label"><p>delivered</p></span></div></foreignObject></g></g><g class="node default" id="my-svg-state-root_end-7" data-look="classic" transform="translate(856.18359375, 897.25)"><g class="outer-path"><path d="M7 0 C7 0.40517908122283747, 6.964012880168563 0.816513743121899, 6.893654271085456 1.2155372436685123 C6.823295662002349 1.6145607442151257, 6.716427752933756 2.013397210557766, 6.5778483455013586 2.394141003279681 C6.439268938068961 2.7748847960015954, 6.26476736710249 3.149104622578984, 6.062177826491071 3.4999999999999996 C5.859588285879653 3.8508953774210153, 5.622755194947063 4.189128084166967, 5.362311101832846 4.499513267805774 C5.10186700871863 4.809898451444582, 4.809898451444583 5.10186700871863, 4.499513267805775 5.362311101832846 C4.189128084166968 5.622755194947063, 3.8508953774210166 5.859588285879652, 3.500000000000001 6.06217782649107 C3.149104622578985 6.264767367102489, 2.7748847960015963 6.439268938068961, 2.3941410032796817 6.5778483455013586 C2.013397210557767 6.716427752933756, 1.6145607442151264 6.823295662002349, 1.2155372436685128 6.893654271085456 C0.8165137431218992 6.964012880168563, 0.4051790812228379 7, 4.286263797015736e-16 7 C-0.405179081222837 7, -0.8165137431218985 6.964012880168563, -1.2155372436685121 6.893654271085456 C-1.6145607442151257 6.823295662002349, -2.0133972105577667 6.716427752933756, -2.394141003279681 6.5778483455013586 C-2.774884796001595 6.439268938068961, -3.149104622578983 6.26476736710249, -3.4999999999999982 6.062177826491071 C-3.8508953774210135 5.859588285879653, -4.189128084166966 5.6227551949470636, -4.499513267805773 5.362311101832848 C-4.809898451444581 5.101867008718632, -5.101867008718628 4.809898451444586, -5.3623111018328435 4.499513267805779 C-5.622755194947059 4.189128084166971, -5.859588285879649 3.8508953774210206, -6.062177826491068 3.5000000000000053 C-6.264767367102486 3.14910462257899, -6.439268938068958 2.774884796001602, -6.577848345501356 2.394141003279688 C-6.716427752933754 2.0133972105577738, -6.823295662002347 1.614560744215134, -6.893654271085454 1.215537243668521 C-6.9640128801685615 0.816513743121908, -6.999999999999999 0.4051790812228472, -7 1.0183126166254463e-14 C-7.000000000000001 -0.40517908122282686, -6.964012880168565 -0.8165137431218878, -6.893654271085459 -1.215537243668501 C-6.823295662002352 -1.6145607442151142, -6.716427752933759 -2.0133972105577542, -6.577848345501363 -2.394141003279669 C-6.439268938068967 -2.7748847960015834, -6.264767367102496 -3.149104622578972, -6.062177826491078 -3.4999999999999876 C-5.859588285879661 -3.8508953774210033, -5.6227551949470715 -4.1891280841669545, -5.362311101832856 -4.499513267805763 C-5.10186700871864 -4.809898451444571, -4.809898451444594 -5.10186700871862, -4.499513267805787 -5.362311101832836 C-4.189128084166979 -5.622755194947053, -3.850895377421028 -5.859588285879643, -3.5000000000000133 -6.062177826491062 C-3.1491046225789985 -6.264767367102482, -2.774884796001611 -6.439268938068954, -2.3941410032796973 -6.577848345501353 C-2.0133972105577835 -6.716427752933752, -1.6145607442151435 -6.823295662002345, -1.2155372436685306 -6.893654271085453 C-0.8165137431219176 -6.9640128801685615, -0.40517908122285695 -6.999999999999999, -1.9937625952807352e-14 -7 C0.4051790812228171 -7.000000000000001, 0.8165137431218781 -6.964012880168565, 1.2155372436684913 -6.89365427108546 C1.6145607442151044 -6.823295662002354, 2.013397210557745 -6.716427752933763, 2.3941410032796595 -6.5778483455013665 C2.774884796001574 -6.43926893806897, 3.149104622578963 -6.2647673671025, 3.499999999999979 -6.062177826491083 C3.8508953774209953 -5.859588285879665, 4.189128084166947 -5.622755194947077, 4.499513267805756 -5.362311101832862 C4.809898451444564 -5.1018670087186475, 5.101867008718613 -4.809898451444602, 5.362311101832829 -4.499513267805796 C5.622755194947046 -4.189128084166989, 5.859588285879637 -3.8508953774210393, 6.062177826491056 -3.500000000000025 C6.2647673671024755 -3.1491046225790105, 6.439268938068949 -2.774884796001623, 6.577848345501348 -2.3941410032797092 C6.716427752933747 -2.0133972105577955, 6.823295662002342 -1.6145607442151562, 6.893654271085451 -1.2155372436685434 C6.96401288016856 -0.8165137431219307, 6.982275711847575 -0.2025895406114567, 7 -3.2800750208310675e-14 C7.017724288152425 0.2025895406113911, 7.017724288152424 -0.2025895406114242, 7 0" stroke="none" stroke-width="0" fill="#F5F2EC" style=""/><path d="M7 0 C7 0.40517908122283747, 6.964012880168563 0.816513743121899, 6.893654271085456 1.2155372436685123 C6.823295662002349 1.6145607442151257, 6.716427752933756 2.013397210557766, 6.5778483455013586 2.394141003279681 C6.439268938068961 2.7748847960015954, 6.26476736710249 3.149104622578984, 6.062177826491071 3.4999999999999996 C5.859588285879653 3.8508953774210153, 5.622755194947063 4.189128084166967, 5.362311101832846 4.499513267805774 C5.10186700871863 4.809898451444582, 4.809898451444583 5.10186700871863, 4.499513267805775 5.362311101832846 C4.189128084166968 5.622755194947063, 3.8508953774210166 5.859588285879652, 3.500000000000001 6.06217782649107 C3.149104622578985 6.264767367102489, 2.7748847960015963 6.439268938068961, 2.3941410032796817 6.5778483455013586 C2.013397210557767 6.716427752933756, 1.6145607442151264 6.823295662002349, 1.2155372436685128 6.893654271085456 C0.8165137431218992 6.964012880168563, 0.4051790812228379 7, 4.286263797015736e-16 7 C-0.405179081222837 7, -0.8165137431218985 6.964012880168563, -1.2155372436685121 6.893654271085456 C-1.6145607442151257 6.823295662002349, -2.0133972105577667 6.716427752933756, -2.394141003279681 6.5778483455013586 C-2.774884796001595 6.439268938068961, -3.149104622578983 6.26476736710249, -3.4999999999999982 6.062177826491071 C-3.8508953774210135 5.859588285879653, -4.189128084166966 5.6227551949470636, -4.499513267805773 5.362311101832848 C-4.809898451444581 5.101867008718632, -5.101867008718628 4.809898451444586, -5.3623111018328435 4.499513267805779 C-5.622755194947059 4.189128084166971, -5.859588285879649 3.8508953774210206, -6.062177826491068 3.5000000000000053 C-6.264767367102486 3.14910462257899, -6.439268938068958 2.774884796001602, -6.577848345501356 2.394141003279688 C-6.716427752933754 2.0133972105577738, -6.823295662002347 1.614560744215134, -6.893654271085454 1.215537243668521 C-6.9640128801685615 0.816513743121908, -6.999999999999999 0.4051790812228472, -7 1.0183126166254463e-14 C-7.000000000000001 -0.40517908122282686, -6.964012880168565 -0.8165137431218878, -6.893654271085459 -1.215537243668501 C-6.823295662002352 -1.6145607442151142, -6.716427752933759 -2.0133972105577542, -6.577848345501363 -2.394141003279669 C-6.439268938068967 -2.7748847960015834, -6.264767367102496 -3.149104622578972, -6.062177826491078 -3.4999999999999876 C-5.859588285879661 -3.8508953774210033, -5.6227551949470715 -4.1891280841669545, -5.362311101832856 -4.499513267805763 C-5.10186700871864 -4.809898451444571, -4.809898451444594 -5.10186700871862, -4.499513267805787 -5.362311101832836 C-4.189128084166979 -5.622755194947053, -3.850895377421028 -5.859588285879643, -3.5000000000000133 -6.062177826491062 C-3.1491046225789985 -6.264767367102482, -2.774884796001611 -6.439268938068954, -2.3941410032796973 -6.577848345501353 C-2.0133972105577835 -6.716427752933752, -1.6145607442151435 -6.823295662002345, -1.2155372436685306 -6.893654271085453 C-0.8165137431219176 -6.9640128801685615, -0.40517908122285695 -6.999999999999999, -1.9937625952807352e-14 -7 C0.4051790812228171 -7.000000000000001, 0.8165137431218781 -6.964012880168565, 1.2155372436684913 -6.89365427108546 C1.6145607442151044 -6.823295662002354, 2.013397210557745 -6.716427752933763, 2.3941410032796595 -6.5778483455013665 C2.774884796001574 -6.43926893806897, 3.149104622578963 -6.2647673671025, 3.499999999999979 -6.062177826491083 C3.8508953774209953 -5.859588285879665, 4.189128084166947 -5.622755194947077, 4.499513267805756 -5.362311101832862 C4.809898451444564 -5.1018670087186475, 5.101867008718613 -4.809898451444602, 5.362311101832829 -4.499513267805796 C5.622755194947046 -4.189128084166989, 5.859588285879637 -3.8508953774210393, 6.062177826491056 -3.500000000000025 C6.2647673671024755 -3.1491046225790105, 6.439268938068949 -2.774884796001623, 6.577848345501348 -2.3941410032797092 C6.716427752933747 -2.0133972105577955, 6.823295662002342 -1.6145607442151562, 6.893654271085451 -1.2155372436685434 C6.96401288016856 -0.8165137431219307, 6.982275711847575 -0.2025895406114567, 7 -3.2800750208310675e-14 C7.017724288152425 0.2025895406113911, 7.017724288152424 -0.2025895406114242, 7 0" stroke="#2A3542" stroke-width="2" fill="none" stroke-dasharray="0 0" style=""/><g><path d="M2.5 0 C2.5 0.14470681472244193, 2.487147457203058 0.29161205111496386, 2.46201938253052 0.4341204441673258 C2.436891307857982 0.5766288372196877, 2.3987241974763416 0.7190704323420595, 2.3492315519647713 0.8550503583141718 C2.299738906453201 0.991030284286284, 2.2374169168223177 1.124680222349637, 2.165063509461097 1.2499999999999998 C2.092710102099876 1.3753197776503625, 2.0081268553382365 1.496117172916774, 1.915111107797445 1.6069690242163481 C1.8220953602566536 1.7178208755159223, 1.7178208755159226 1.8220953602566536, 1.6069690242163484 1.915111107797445 C1.4961171729167742 2.0081268553382365, 1.375319777650363 2.0927101020998755, 1.2500000000000002 2.1650635094610964 C1.1246802223496375 2.2374169168223172, 0.9910302842862845 2.2997389064532, 0.8550503583141721 2.349231551964771 C0.7190704323420597 2.3987241974763416, 0.576628837219688 2.436891307857982, 0.43412044416732604 2.46201938253052 C0.291612051114964 2.487147457203058, 0.14470681472244212 2.5, 1.5308084989341916e-16 2.5 C-0.1447068147224418 2.5, -0.2916120511149638 2.487147457203058, -0.43412044416732576 2.46201938253052 C-0.5766288372196877 2.436891307857982, -0.7190704323420595 2.3987241974763416, -0.8550503583141718 2.3492315519647713 C-0.991030284286284 2.299738906453201, -1.124680222349637 2.2374169168223177, -1.2499999999999996 2.165063509461097 C-1.375319777650362 2.092710102099876, -1.4961171729167733 2.008126855338237, -1.6069690242163475 1.9151111077974459 C-1.7178208755159217 1.8220953602566548, -1.822095360256653 1.7178208755159234, -1.9151111077974443 1.6069690242163495 C-2.0081268553382357 1.4961171729167755, -2.0927101020998746 1.3753197776503645, -2.1650635094610955 1.250000000000002 C-2.2374169168223164 1.1246802223496395, -2.2997389064531992 0.9910302842862865, -2.34923155196477 0.8550503583141743 C-2.3987241974763407 0.7190704323420621, -2.436891307857981 0.5766288372196907, -2.4620193825305194 0.434120444167329 C-2.487147457203058 0.29161205111496724, -2.5 0.14470681472244545, -2.5 3.636830773662308e-15 C-2.5 -0.14470681472243818, -2.4871474572030587 -0.2916120511149599, -2.4620193825305208 -0.4341204441673218 C-2.436891307857983 -0.5766288372196837, -2.398724197476343 -0.7190704323420553, -2.3492315519647726 -0.8550503583141675 C-2.2997389064532023 -0.9910302842862798, -2.23741691682232 -1.1246802223496328, -2.165063509461099 -1.2499999999999956 C-2.092710102099878 -1.3753197776503583, -2.00812685533824 -1.4961171729167695, -1.9151111077974488 -1.606969024216344 C-1.8220953602566576 -1.7178208755159183, -1.7178208755159263 -1.82209536025665, -1.6069690242163523 -1.9151111077974416 C-1.4961171729167784 -2.0081268553382334, -1.3753197776503672 -2.0927101020998724, -1.2500000000000047 -2.1650635094610937 C-1.1246802223496422 -2.237416916822315, -0.9910302842862897 -2.299738906453198, -0.8550503583141776 -2.3492315519647686 C-0.7190704323420656 -2.3987241974763394, -0.5766288372196942 -2.4368913078579806, -0.43412044416733236 -2.462019382530519 C-0.29161205111497057 -2.4871474572030574, -0.1447068147224489 -2.4999999999999996, -7.120580697431198e-15 -2.5 C0.14470681472243463 -2.5000000000000004, 0.29161205111495647 -2.487147457203059, 0.4341204441673183 -2.4620193825305217 C0.5766288372196802 -2.436891307857984, 0.7190704323420518 -2.3987241974763442, 0.8550503583141642 -2.349231551964774 C0.9910302842862766 -2.2997389064532037, 1.1246802223496295 -2.2374169168223212, 1.2499999999999925 -2.165063509461101 C1.3753197776503554 -2.0927101020998804, 1.4961171729167668 -2.008126855338242, 1.6069690242163412 -1.915111107797451 C1.7178208755159157 -1.82209536025666, 1.8220953602566472 -1.7178208755159294, 1.915111107797439 -1.6069690242163557 C2.0081268553382308 -1.496117172916782, 2.09271010209987 -1.3753197776503712, 2.1650635094610915 -1.2500000000000089 C2.237416916822313 -1.1246802223496466, 2.299738906453196 -0.9910302842862939, 2.3492315519647673 -0.855050358314182 C2.3987241974763385 -0.71907043234207, 2.4368913078579792 -0.5766288372196986, 2.462019382530518 -0.4341204441673369 C2.487147457203057 -0.29161205111497523, 2.4936698970884197 -0.07235340736123454, 2.5 -1.1714553645825241e-14 C2.5063301029115803 0.07235340736121111, 2.50633010291158 -0.07235340736122292, 2.5 0" stroke="none" stroke-width="0" fill="#C46A3A" style=""/><path d="M2.5 0 C2.5 0.14470681472244193, 2.487147457203058 0.29161205111496386, 2.46201938253052 0.4341204441673258 C2.436891307857982 0.5766288372196877, 2.3987241974763416 0.7190704323420595, 2.3492315519647713 0.8550503583141718 C2.299738906453201 0.991030284286284, 2.2374169168223177 1.124680222349637, 2.165063509461097 1.2499999999999998 C2.092710102099876 1.3753197776503625, 2.0081268553382365 1.496117172916774, 1.915111107797445 1.6069690242163481 C1.8220953602566536 1.7178208755159223, 1.7178208755159226 1.8220953602566536, 1.6069690242163484 1.915111107797445 C1.4961171729167742 2.0081268553382365, 1.375319777650363 2.0927101020998755, 1.2500000000000002 2.1650635094610964 C1.1246802223496375 2.2374169168223172, 0.9910302842862845 2.2997389064532, 0.8550503583141721 2.349231551964771 C0.7190704323420597 2.3987241974763416, 0.576628837219688 2.436891307857982, 0.43412044416732604 2.46201938253052 C0.291612051114964 2.487147457203058, 0.14470681472244212 2.5, 1.5308084989341916e-16 2.5 C-0.1447068147224418 2.5, -0.2916120511149638 2.487147457203058, -0.43412044416732576 2.46201938253052 C-0.5766288372196877 2.436891307857982, -0.7190704323420595 2.3987241974763416, -0.8550503583141718 2.3492315519647713 C-0.991030284286284 2.299738906453201, -1.124680222349637 2.2374169168223177, -1.2499999999999996 2.165063509461097 C-1.375319777650362 2.092710102099876, -1.4961171729167733 2.008126855338237, -1.6069690242163475 1.9151111077974459 C-1.7178208755159217 1.8220953602566548, -1.822095360256653 1.7178208755159234, -1.9151111077974443 1.6069690242163495 C-2.0081268553382357 1.4961171729167755, -2.0927101020998746 1.3753197776503645, -2.1650635094610955 1.250000000000002 C-2.2374169168223164 1.1246802223496395, -2.2997389064531992 0.9910302842862865, -2.34923155196477 0.8550503583141743 C-2.3987241974763407 0.7190704323420621, -2.436891307857981 0.5766288372196907, -2.4620193825305194 0.434120444167329 C-2.487147457203058 0.29161205111496724, -2.5 0.14470681472244545, -2.5 3.636830773662308e-15 C-2.5 -0.14470681472243818, -2.4871474572030587 -0.2916120511149599, -2.4620193825305208 -0.4341204441673218 C-2.436891307857983 -0.5766288372196837, -2.398724197476343 -0.7190704323420553, -2.3492315519647726 -0.8550503583141675 C-2.2997389064532023 -0.9910302842862798, -2.23741691682232 -1.1246802223496328, -2.165063509461099 -1.2499999999999956 C-2.092710102099878 -1.3753197776503583, -2.00812685533824 -1.4961171729167695, -1.9151111077974488 -1.606969024216344 C-1.8220953602566576 -1.7178208755159183, -1.7178208755159263 -1.82209536025665, -1.6069690242163523 -1.9151111077974416 C-1.4961171729167784 -2.0081268553382334, -1.3753197776503672 -2.0927101020998724, -1.2500000000000047 -2.1650635094610937 C-1.1246802223496422 -2.237416916822315, -0.9910302842862897 -2.299738906453198, -0.8550503583141776 -2.3492315519647686 C-0.7190704323420656 -2.3987241974763394, -0.5766288372196942 -2.4368913078579806, -0.43412044416733236 -2.462019382530519 C-0.29161205111497057 -2.4871474572030574, -0.1447068147224489 -2.4999999999999996, -7.120580697431198e-15 -2.5 C0.14470681472243463 -2.5000000000000004, 0.29161205111495647 -2.487147457203059, 0.4341204441673183 -2.4620193825305217 C0.5766288372196802 -2.436891307857984, 0.7190704323420518 -2.3987241974763442, 0.8550503583141642 -2.349231551964774 C0.9910302842862766 -2.2997389064532037, 1.1246802223496295 -2.2374169168223212, 1.2499999999999925 -2.165063509461101 C1.3753197776503554 -2.0927101020998804, 1.4961171729167668 -2.008126855338242, 1.6069690242163412 -1.915111107797451 C1.7178208755159157 -1.82209536025666, 1.8220953602566472 -1.7178208755159294, 1.915111107797439 -1.6069690242163557 C2.0081268553382308 -1.496117172916782, 2.09271010209987 -1.3753197776503712, 2.1650635094610915 -1.2500000000000089 C2.237416916822313 -1.1246802223496466, 2.299738906453196 -0.9910302842862939, 2.3492315519647673 -0.855050358314182 C2.3987241974763385 -0.71907043234207, 2.4368913078579792 -0.5766288372196986, 2.462019382530518 -0.4341204441673369 C2.487147457203057 -0.29161205111497523, 2.4936698970884197 -0.07235340736123454, 2.5 -1.1714553645825241e-14 C2.5063301029115803 0.07235340736121111, 2.50633010291158 -0.07235340736122292, 2.5 0" stroke="#C46A3A" stroke-width="2" fill="none" stroke-dasharray="0 0" style=""/></g></g></g><g class="node  statediagram-state" id="my-svg-state-cancelled-9" data-look="classic" transform="translate(149.359375, 335.75)"><rect class="basic label-container" style="" rx="5" ry="5" x="-38.8828125" y="-19.25" width="77.765625" height="38.5"/><g class="label" style="" transform="translate(-30.8828125, -11.25)"><rect/><foreignObject width="61.765625" height="22.5"><div xmlns="http://www.w3.org/1999/xhtml" style="display: table-cell; white-space: nowrap; line-height: 1.5; max-width: 200px; text-align: center;"><span class="nodeLabel markdown-node-label"><p>cancelled</p></span></div></foreignObject></g></g><g class="node  statediagram-state" id="my-svg-state-rejected-19" data-look="classic" transform="translate(360.56640625, 897.25)"><rect class="basic label-container" style="" rx="5" ry="5" x="-34.6171875" y="-19.25" width="69.234375" height="38.5"/><g class="label" style="" transform="translate(-26.6171875, -11.25)"><rect/><foreignObject width="53.234375" height="22.5"><div xmlns="http://www.w3.org/1999/xhtml" style="display: table-cell; white-space: nowrap; line-height: 1.5; max-width: 200px; text-align: center;"><span class="nodeLabel markdown-node-label"><p>rejected</p></span></div></foreignObject></g></g><g class="node  statediagram-state" id="my-svg-state-on_hold-19" data-look="classic" transform="translate(597.6640625, 808.75)"><rect class="basic label-container" style="" rx="5" ry="5" x="-34.625" y="-19.25" width="69.25" height="38.5"/><g class="label" style="" transform="translate(-26.625, -11.25)"><rect/><foreignObject width="53.25" height="22.5"><div xmlns="http://www.w3.org/1999/xhtml" style="display: table-cell; white-space: nowrap; line-height: 1.5; max-width: 200px; text-align: center;"><span class="nodeLabel markdown-node-label"><p>on_hold</p></span></div></foreignObject></g></g></g></g></g><defs><filter id="my-svg-drop-shadow" height="130%" width="130%"><feDropShadow dx="4" dy="4" stdDeviation="0" flood-opacity="0.06" flood-color="#000000"/></filter></defs><defs><filter id="my-svg-drop-shadow-small" height="150%" width="150%"><feDropShadow dx="2" dy="2" stdDeviation="0" flood-opacity="0.06" flood-color="#000000"/></filter></defs><linearGradient id="my-svg-gradient" gradientUnits="objectBoundingBox" x1="0%" y1="0%" x2="100%" y2="0%"><stop offset="0%" stop-color="#C46A3A" stop-opacity="1"/><stop offset="100%" stop-color="hsl(204.5454545455, 0%, 73.137254902%)" stop-opacity="1"/></linearGradient></svg>