<svg xmlns="http://www.w3.org/2000/svg" viewBox="0 0 1440 820" width="1440" height="820"><path d="M228.9 -1.3L355.8 12.0M228.9 -1.3L169.9 95.6M228.9 -1.3L287.9 101.5M355.8 12.0L287.9 101.5M598.5 -7.9L717.4 7.0M717.4 7.0L831.5 4.2M717.4 7.0L793.0 96.9M831.5 4.2L960.3 -6.7M831.5 4.2L793.0 96.9M960.3 -6.7L1031.5 95.3M48.8 114.5L169.9 95.6M169.9 95.6L287.9 101.5M169.9 95.6L110.9 206.8M169.9 95.6L226.8 200.6M287.9 101.5L226.8 200.6M287.9 101.5L349.6 198.7M1031.5 95.3L1087.9 197.3M12.6 208.4L110.9 206.8M110.9 206.8L226.8 200.6M226.8 200.6L349.6 198.7M1087.9 197.3L1194.2 217.3M1087.9 197.3L1033.2 311.1M1194.2 217.3L1249.3 316.9M1324.9 206.4L1249.3 316.9M1324.9 206.4L1386.1 302.6M176.9 303.6L128.9 409.5M784.3 304.0L903.9 301.3M1033.2 311.1L1129.0 307.2M1033.2 311.1L1086.6 410.9M1129.0 307.2L1249.3 316.9M11.9 404.2L56.3 529.7M243.8 410.0L308.5 512.2M728.3 422.3L658.5 520.8M1086.6 410.9L1030.4 513.2M56.3 529.7L11.0 622.2M545.8 513.0L658.5 520.8M658.5 520.8L767.7 528.2M767.7 528.2L714.9 615.6M767.7 528.2L829.2 635.0M1030.4 513.2L960.3 615.9M1252.8 523.1L1207.6 630.9M1252.8 523.1L1324.6 619.6M244.0 621.5L288.4 736.9M714.9 615.6L829.2 635.0M714.9 615.6L788.4 721.0M829.2 635.0L960.3 615.9M829.2 635.0L788.4 721.0M960.3 615.9L893.9 721.8M960.3 615.9L1016.8 720.3M1207.6 630.9L1324.6 619.6M788.4 721.0L893.9 721.8M893.9 721.8L1016.8 720.3" fill="none" stroke="#D5B167" stroke-width=".6" stroke-opacity=".35"/><g fill="#D5B167"><polygon points="12.3,-3.6 9.7,-2.1 7.1,-3.6 7.1,-6.6 9.7,-8.1 12.3,-6.6" fill-opacity="0.5"/><polygon points="231.5,0.2 228.9,1.7 226.3,0.2 226.3,-2.8 228.9,-4.3 231.5,-2.8" fill-opacity="0.5"/><polygon points="358.4,13.5 355.8,15.0 353.2,13.5 353.2,10.5 355.8,9.0 358.4,10.5" fill-opacity="0.5"/><polygon points="601.1,-6.4 598.5,-4.9 595.9,-6.4 595.9,-9.4 598.5,-10.9 601.1,-9.4" fill-opacity="0.5"/><polygon points="722.2,9.8 717.4,12.5 712.7,9.8 712.7,4.3 717.4,1.5 722.2,4.3" fill-opacity="0.9"/><polygon points="834.1,5.7 831.5,7.2 828.9,5.7 828.9,2.7 831.5,1.2 834.1,2.7" fill-opacity="0.5"/><polygon points="962.9,-5.2 960.3,-3.7 957.7,-5.2 957.7,-8.2 960.3,-9.7 962.9,-8.2" fill-opacity="0.5"/><polygon points="51.4,116.0 48.8,117.5 46.2,116.0 46.2,113.0 48.8,111.5 51.4,113.0" fill-opacity="0.5"/><polygon points="172.5,97.1 169.9,98.6 167.3,97.1 167.3,94.1 169.9,92.6 172.5,94.1" fill-opacity="0.5"/><polygon points="290.5,103.0 287.9,104.5 285.3,103.0 285.3,100.0 287.9,98.5 290.5,100.0" fill-opacity="0.5"/><polygon points="795.6,98.4 793.0,99.9 790.4,98.4 790.4,95.4 793.0,93.9 795.6,95.4" fill-opacity="0.5"/><polygon points="1036.3,98.0 1031.5,100.8 1026.7,98.0 1026.7,92.5 1031.5,89.8 1036.3,92.5" fill-opacity="0.9"/><polygon points="1268.9,111.7 1266.3,113.2 1263.7,111.7 1263.7,108.7 1266.3,107.2 1268.9,108.7" fill-opacity="0.5"/><polygon points="15.2,209.9 12.6,211.4 10.0,209.9 10.0,206.9 12.6,205.4 15.2,206.9" fill-opacity="0.5"/><polygon points="113.5,208.3 110.9,209.8 108.3,208.3 108.3,205.3 110.9,203.8 113.5,205.3" fill-opacity="0.5"/><polygon points="229.4,202.1 226.8,203.6 224.2,202.1 224.2,199.1 226.8,197.6 229.4,199.1" fill-opacity="0.5"/><polygon points="352.2,200.2 349.6,201.7 347.0,200.2 347.0,197.2 349.6,195.7 352.2,197.2" fill-opacity="0.5"/><polygon points="1090.5,198.8 1087.9,200.3 1085.4,198.8 1085.4,195.8 1087.9,194.3 1090.5,195.8" fill-opacity="0.5"/><polygon points="1196.8,218.8 1194.2,220.3 1191.6,218.8 1191.6,215.8 1194.2,214.3 1196.8,215.8" fill-opacity="0.5"/><polygon points="1327.5,207.9 1324.9,209.4 1322.3,207.9 1322.3,204.9 1324.9,203.4 1327.5,204.9" fill-opacity="0.5"/><polygon points="179.5,305.1 176.9,306.6 174.3,305.1 174.3,302.1 176.9,300.6 179.5,302.1" fill-opacity="0.5"/><polygon points="541.0,306.8 538.4,308.3 535.8,306.8 535.8,303.8 538.4,302.3 541.0,303.8" fill-opacity="0.5"/><polygon points="786.9,305.5 784.3,307.0 781.7,305.5 781.7,302.5 784.3,301.0 786.9,302.5" fill-opacity="0.5"/><polygon points="908.6,304.0 903.9,306.8 899.1,304.0 899.1,298.5 903.9,295.8 908.6,298.5" fill-opacity="0.9"/><polygon points="1035.8,312.6 1033.2,314.1 1030.6,312.6 1030.6,309.6 1033.2,308.1 1035.8,309.6" fill-opacity="0.5"/><polygon points="1131.6,308.7 1129.0,310.2 1126.4,308.7 1126.4,305.7 1129.0,304.2 1131.6,305.7" fill-opacity="0.5"/><polygon points="1251.9,318.4 1249.3,319.9 1246.7,318.4 1246.7,315.4 1249.3,313.9 1251.9,315.4" fill-opacity="0.5"/><polygon points="1388.7,304.1 1386.1,305.6 1383.5,304.1 1383.5,301.1 1386.1,299.6 1388.7,301.1" fill-opacity="0.5"/><polygon points="14.5,405.7 11.9,407.2 9.3,405.7 9.3,402.7 11.9,401.2 14.5,402.7" fill-opacity="0.5"/><polygon points="131.5,411.0 128.9,412.5 126.3,411.0 126.3,408.0 128.9,406.5 131.5,408.0" fill-opacity="0.5"/><polygon points="248.6,412.8 243.8,415.5 239.1,412.8 239.1,407.3 243.8,404.5 248.6,407.3" fill-opacity="0.9"/><polygon points="730.9,423.8 728.3,425.3 725.7,423.8 725.7,420.8 728.3,419.3 730.9,420.8" fill-opacity="0.5"/><polygon points="1089.2,412.4 1086.6,413.9 1084.0,412.4 1084.0,409.4 1086.6,407.9 1089.2,409.4" fill-opacity="0.5"/><polygon points="58.9,531.2 56.3,532.7 53.7,531.2 53.7,528.2 56.3,526.7 58.9,528.2" fill-opacity="0.5"/><polygon points="311.1,513.7 308.5,515.2 305.9,513.7 305.9,510.7 308.5,509.2 311.1,510.7" fill-opacity="0.5"/><polygon points="548.4,514.5 545.8,516.0 543.2,514.5 543.2,511.5 545.8,510.0 548.4,511.5" fill-opacity="0.5"/><polygon points="661.1,522.3 658.5,523.8 655.9,522.3 655.9,519.3 658.5,517.8 661.1,519.3" fill-opacity="0.5"/><polygon points="770.3,529.7 767.7,531.2 765.1,529.7 765.1,526.7 767.7,525.2 770.3,526.7" fill-opacity="0.5"/><polygon points="908.6,517.1 906.0,518.6 903.4,517.1 903.4,514.1 906.0,512.6 908.6,514.1" fill-opacity="0.5"/><polygon points="1033.0,514.7 1030.4,516.2 1027.8,514.7 1027.8,511.7 1030.4,510.2 1033.0,511.7" fill-opacity="0.5"/><polygon points="1255.4,524.6 1252.8,526.1 1250.2,524.6 1250.2,521.6 1252.8,520.1 1255.4,521.6" fill-opacity="0.5"/><polygon points="13.6,623.7 11.0,625.2 8.4,623.7 8.4,620.7 11.0,619.2 13.6,620.7" fill-opacity="0.5"/><polygon points="246.6,623.0 244.0,624.5 241.4,623.0 241.4,620.0 244.0,618.5 246.6,620.0" fill-opacity="0.5"/><polygon points="473.9,629.7 469.1,632.5 464.4,629.7 464.4,624.2 469.1,621.5 473.9,624.2" fill-opacity="0.9"/><polygon points="717.5,617.1 714.9,618.6 712.3,617.1 712.3,614.1 714.9,612.6 717.5,614.1" fill-opacity="0.5"/><polygon points="831.8,636.5 829.2,638.0 826.6,636.5 826.6,633.5 829.2,632.0 831.8,633.5" fill-opacity="0.5"/><polygon points="962.9,617.4 960.3,618.9 957.7,617.4 957.7,614.4 960.3,612.9 962.9,614.4" fill-opacity="0.5"/><polygon points="1210.2,632.4 1207.6,633.9 1205.0,632.4 1205.0,629.4 1207.6,627.9 1210.2,629.4" fill-opacity="0.5"/><polygon points="1327.2,621.1 1324.6,622.6 1322.0,621.1 1322.0,618.1 1324.6,616.6 1327.2,618.1" fill-opacity="0.5"/><polygon points="291.0,738.4 288.4,739.9 285.8,738.4 285.8,735.4 288.4,733.9 291.0,735.4" fill-opacity="0.5"/><polygon points="654.4,725.5 651.8,727.0 649.2,725.5 649.2,722.5 651.8,721.0 654.4,722.5" fill-opacity="0.5"/><polygon points="791.0,722.5 788.4,724.0 785.8,722.5 785.8,719.5 788.4,718.0 791.0,719.5" fill-opacity="0.5"/><polygon points="896.5,723.3 893.9,724.8 891.3,723.3 891.3,720.3 893.9,718.8 896.5,720.3" fill-opacity="0.5"/><polygon points="1019.4,721.8 1016.8,723.3 1014.2,721.8 1014.2,718.8 1016.8,717.3 1019.4,718.8" fill-opacity="0.5"/><polygon points="1255.2,728.2 1252.6,729.7 1250.0,728.2 1250.0,725.2 1252.6,723.7 1255.2,725.2" fill-opacity="0.5"/><polygon points="1396.0,740.7 1393.4,742.2 1390.8,740.7 1390.8,737.7 1393.4,736.2 1396.0,737.7" fill-opacity="0.5"/></g></svg>